# xmcd CD database file
#
# Track frame offsets:
#	150
#	14337
#	26350
#	37715
#	47990
#	58790
#	73812
#	85927
#	99280
#	110280
#
# Disc length: 1636 seconds
#
# Revision: 3
# Processed by: cddbd v1.5.2PL0 Copyright (c) Steve Scherf et al.
# Submitted via: CDex 1.70beta2
#
DISCID=7606620a
DTITLE=Freddy Fender - Good Old Country
DYEAR=2000
DGENRE=Country
TTITLE0=Wasted Days And Wasted Nights ( 2000 ) - Freddy Fender
TTITLE1=Before The Next Teardrop Falls ( 2000 ) - Freddy Fender
TTITLE2=You'll Lose A Good Thing ( 2000 ) - Freddy Fender
TTITLE3=Crazy Baby ( 2000 ) - Freddy Fender
TTITLE4=Wild Side Of Life ( 2000 ) - Freddy Fender
TTITLE5=La Bamba ( 2000 ) - Freddy Fender
TTITLE6=Loving Cajun Style ( 2000 ) - Freddy Fender
TTITLE7=Just Because ( 2000 ) - Freddy Fender
TTITLE8=The Rains Came ( 2000 ) - Freddy Fender
TTITLE9=Almost Persuaded ( 2000 ) - Freddy Fender
EXTD=YEAR: 2000
EXTT0=
EXTT1=
EXTT2=
EXTT3=
EXTT4=
EXTT5=
EXTT6=
EXTT7=
EXTT8=
EXTT9=
PLAYORDER=
